<?xml version="1.0" encoding="utf-8"?>
<!-- Generator: Adobe Illustrator 27.0.0, SVG Export Plug-In . SVG Version: 6.00 Build 0)  -->
<svg version="1.1" id="圖層_1" xmlns="http://www.w3.org/2000/svg" xmlns:xlink="http://www.w3.org/1999/xlink" x="0px" y="0px"
	 viewBox="0 0 656 482.2" style="enable-background:new 0 0 656 482.2;" xml:space="preserve">
<style type="text/css">
	.st0{fill:#F2F2F2;}
	.st1{fill:#FFB6B6;}
	.st2{fill:#E6E6E6;}
	.st3{fill:#2F2E41;}
	.st4{fill:#A0616A;}
	.st5{opacity:0.1;enable-background:new    ;}
	.st6{fill:#FFFFFF;}
	.st7{fill:#3F3D56;}
	.st8{fill:#C6332E;}
</style>
<g>
	<path class="st0" d="M130,390.2c-0.4-1.1-3-0.6-3.3-1.6c-0.3-1,2.3-1.8,4.3-4.5c0.4-0.5,2.6-3.6,1.7-4.9c-1.6-2.5-13,3.7-15.7,0.2
		c-0.6-0.8-0.8-2.1-2.6-4.5c-0.7-1-1.2-1.4-1.7-1.4c-0.8,0-1,1-2.3,2.7c-1.8,2.6-2.5,2.3-3.7,4.4c-0.9,1.6-1,2.6-1.6,2.7
		c-0.9,0.1-1.3-1.9-2.4-2c-1.1-0.1-2.3,1.9-2.8,3.4c-1.1,2.9-0.4,5.1-0.3,7.3c0.2,2.4-0.2,5.9-2.8,10.3l-24.4,38.9
		c5.2-7.9,20.1-29.5,26.1-37.4c1.7-2.3,3.6-4.6,6.4-5c2.8-0.4,6.1,0.9,10.8,0.9c0.5,0,2.1-0.1,2.4-0.9c0.3-0.7-0.5-1.2-0.2-1.9
		c0.4-0.8,2-0.5,4.3-1c1.6-0.4,2.7-1,3.6-1.6C126.2,394.2,130.4,391.7,130,390.2L130,390.2L130,390.2z"/>
	<path class="st0" d="M66.1,399.3c-0.6-0.1-1.2,1.3-1.7,1.2c-0.5-0.2-0.2-1.7-1-3.4c-0.1-0.3-1-2.3-1.9-2.3
		c-1.7,0.1-1.9,7.4-4.4,7.8c-0.5,0.1-1.3-0.2-3,0c-0.7,0.1-1,0.2-1.2,0.4c-0.2,0.4,0.2,0.8,0.7,1.9c0.8,1.6,0.4,1.9,1.1,3.1
		c0.5,0.9,1,1.2,0.8,1.6c-0.2,0.5-1.3,0.1-1.7,0.6c-0.4,0.5,0.3,1.7,0.9,2.4c1.1,1.3,2.4,1.7,3.5,2.2c1.2,0.6,2.8,1.8,4.3,4.4
		l12,23.2c-2.4-4.9-8.7-18.4-10.9-23.6c-0.6-1.5-1.2-3.1-0.6-4.6c0.6-1.5,2.2-2.7,3.5-5c0.2-0.3,0.6-1,0.3-1.4
		c-0.2-0.3-0.7-0.1-1-0.5c-0.3-0.4,0.4-1.1,0.7-2.4c0.3-0.9,0.3-1.6,0.3-2.2C67,402.3,66.9,399.5,66.1,399.3L66.1,399.3L66.1,399.3z
		"/>
	<path class="st0" d="M78.1,405l0.4-3.5l0.2-0.2c1.1-1,1.7-2.1,2-3.2c0-0.2,0.1-0.4,0.1-0.5c0.1-0.7,0.3-1.6,1-2.5
		c0.4-0.5,1.4-1.7,2.5-1.3c0.3,0.1,0.5,0.3,0.6,0.5c0,0,0.1-0.1,0.1-0.1c0.5-0.4,0.8-0.6,1.1-0.8c0.2-0.1,0.5-0.2,0.9-0.6
		c0.2-0.1,0.3-0.3,0.4-0.4c0.4-0.3,0.8-0.7,1.5-0.6c0.7,0.2,0.9,0.8,1.1,1.3c0.3,0.8,0.4,1.3,0.4,1.7c0,0.1,0,0.3,0.1,0.3
		c0.2,0.4,2,0.5,2.7,0.5c1.6,0.1,3,0.2,3.3,1.3c0.2,0.8-0.3,1.6-1.5,2.6c-0.4,0.3-0.8,0.5-1.1,0.7c0.2,0.2,0.4,0.5,0.4,0.8l0,0
		c0,0.9-0.9,1.5-2.7,2c-0.4,0.1-1,0.3-1.8,0.2c-0.4,0-0.7-0.1-1-0.1c0,0.2-0.1,0.3-0.3,0.5c-0.4,0.5-1,0.6-1.9,0.3
		c-1-0.3-1.7-0.6-2.4-1c-0.6-0.3-1.1-0.5-1.5-0.6c-0.8-0.1-1.5,0.4-2.4,1L78.1,405L78.1,405L78.1,405z"/>
	<path class="st0" d="M84.4,385.1l-3.5,0.5l-0.3-0.2c-1.3-0.8-2.5-1.2-3.6-1.1c-0.2,0-0.4,0-0.5,0c-0.7,0.1-1.6,0.1-2.7-0.3
		c-0.6-0.2-2-0.9-1.9-2.1c0-0.3,0.2-0.5,0.3-0.7c0,0-0.1,0-0.1-0.1c-0.5-0.3-0.8-0.6-1-0.9c-0.2-0.2-0.4-0.4-0.8-0.7
		c-0.2-0.1-0.3-0.2-0.5-0.3c-0.4-0.3-0.9-0.6-0.9-1.3c0-0.7,0.6-1.1,1-1.4c0.7-0.5,1.2-0.7,1.5-0.8c0.1-0.1,0.3-0.1,0.3-0.1
		c0.3-0.2-0.1-2.1-0.2-2.8c-0.3-1.6-0.6-2.9,0.4-3.5c0.7-0.4,1.6-0.2,2.9,0.8c0.4,0.3,0.7,0.6,0.9,0.9c0.1-0.3,0.4-0.5,0.7-0.6l0,0
		c0.8-0.2,1.7,0.5,2.6,2.1c0.2,0.4,0.5,0.9,0.7,1.7c0.1,0.4,0.1,0.7,0.1,1c0.2,0,0.3,0,0.5,0.1c0.5,0.3,0.8,0.9,0.8,1.8
		c0,1-0.2,1.8-0.3,2.6c-0.1,0.6-0.2,1.2-0.2,1.6c0.1,0.8,0.8,1.4,1.6,2.1L84.4,385.1L84.4,385.1L84.4,385.1z"/>
	<path class="st0" d="M84.9,374.6l0.4-3.5l0.2-0.2c1.1-1,1.7-2.1,2-3.2c0-0.2,0.1-0.4,0.1-0.5c0.1-0.7,0.3-1.6,1-2.5
		c0.4-0.5,1.4-1.7,2.5-1.3c0.3,0.1,0.5,0.3,0.6,0.5c0,0,0.1-0.1,0.1-0.1c0.5-0.4,0.8-0.6,1.1-0.8c0.2-0.1,0.5-0.2,0.9-0.6
		c0.2-0.1,0.3-0.3,0.4-0.4c0.4-0.3,0.8-0.7,1.5-0.6c0.7,0.2,0.9,0.8,1.1,1.3c0.3,0.8,0.4,1.3,0.4,1.7c0,0.1,0,0.3,0.1,0.3
		c0.2,0.4,2,0.5,2.7,0.5c1.6,0.1,3,0.2,3.3,1.3c0.2,0.8-0.3,1.6-1.5,2.6c-0.4,0.3-0.8,0.5-1.1,0.7c0.2,0.2,0.4,0.5,0.4,0.8l0,0
		c0,0.9-0.9,1.5-2.7,2c-0.4,0.1-1,0.3-1.8,0.2c-0.4,0-0.7-0.1-1-0.1c0,0.2-0.1,0.3-0.3,0.5c-0.4,0.5-1,0.6-1.9,0.3
		c-1-0.3-1.7-0.6-2.4-1c-0.6-0.3-1.1-0.5-1.5-0.6c-0.8-0.1-1.5,0.4-2.4,1L84.9,374.6L84.9,374.6L84.9,374.6z"/>
	<path class="st0" d="M73.6,441.6l-0.6-0.6l0-0.9l0,0.9l-0.9-0.1c0-0.1,0-0.3,0-0.6c0-1.6-0.1-6.5,0.5-14c0.5-5.2,1.3-10.6,2.4-15.8
		c1.1-5.3,2.2-9.2,3.1-12.3c0.7-2.4,1.4-4.6,2.1-6.8c1.8-5.9,3.5-11.4,4.6-17.7c0.2-1.4,0.7-4.3-0.3-7.8c-0.6-2-1.6-3.9-3-5.6
		l1.3-1.1c1.5,1.9,2.6,4,3.3,6.2c1.1,3.8,0.6,7,0.3,8.6c-1.1,6.4-2.8,12-4.6,17.9c-0.7,2.2-1.4,4.4-2.1,6.8c-0.9,3.1-2,7-3.1,12.2
		c-1.1,5.2-1.9,10.5-2.3,15.6c-0.7,7.4-0.6,12.2-0.5,13.8C73.9,441.1,73.9,441.3,73.6,441.6L73.6,441.6L73.6,441.6z"/>
	<path class="st0" d="M77.9,362.1c-0.1,0-0.1,0-0.2-0.1c-1.4-0.4-2.6-1.6-3.4-3.4c-0.4-0.9-0.5-1.8-0.7-3.7c0-0.3-0.2-1.7,0-3.7
		c0.1-1.3,0.2-1.8,0.6-2.2c0.4-0.4,0.9-0.7,1.4-0.8c0-0.2,0.1-0.3,0.2-0.5c0.4-0.6,1.2-0.4,1.6-0.2c0.2,0.1,0.5,0.2,0.7,0.2
		c0.4,0.1,0.7,0,1.1-0.1c0.4-0.1,0.9-0.3,1.5-0.2c1.3,0,2.3,0.6,2.6,0.8c1.7,1,2.3,2.6,2.9,4.5c0.1,0.4,0.6,1.7,0.7,3.5
		c0.1,1.3-0.1,1.8-0.3,2.1c-0.4,0.8-1,1.1-2.4,1.8c-1.5,0.8-2.3,1.2-2.9,1.4C79.9,362.1,78.9,362.4,77.9,362.1L77.9,362.1
		L77.9,362.1z"/>
</g>
<g>
	<path class="st1" d="M272.9,256c4.6-3.9,3.4-12.9-2.7-20.1c-2.7-3.2-5.8-5.4-8.9-6.7l-3.6-4.1l-45.9-57.5c0,0-25.4-57.2-32.9-63.3
		c-7.5-6.2-16.3-3-16.3-3l-6.9,8.5l42.9,79.8l43.9,44.2l5.9,6.2c0.7,3.3,2.5,6.7,5.1,9.9C259.7,257.2,268.3,259.9,272.9,256
		L272.9,256z"/>
	<polygon class="st2" points="186.3,115 197.8,131.8 214.3,156.2 184.7,166.5 158.5,121.6 	"/>
</g>
<path class="st3" d="M464.4,301h-52.3v-17.8c0-28.6,23.2-51.8,51.8-51.8h0.5L464.4,301L464.4,301L464.4,301z"/>
<polygon class="st4" points="423.8,291.7 432.4,263.3 454.7,262.2 464.4,301 "/>
<polygon class="st5" points="423.8,291.7 432.4,263.3 454.7,262.2 464.4,301 "/>
<circle class="st4" cx="444" cy="253.8" r="26.2"/>
<path class="st3" d="M388.6,400l-6.9,6.9c0,0-37-24.8-51.2-15.6c-14.2,9.3-14.8,27.2,1.9,37s59.3,34,59.3,34s56.8,9.9,95.1-20.4
	s45.4-28.7,38.6-44.8s-21.6-12.4-21.6-12.4l-28.4,16.7l-11.7-2.5L388.6,400L388.6,400z"/>
<polyline class="st3" points="390.1,407.7 419.8,420.6 408.7,447.2 364.8,436.7 "/>
<polyline class="st3" points="465.9,407.7 425.9,426.2 441.4,458.3 485.9,439.2 "/>
<polygon class="st2" points="425.9,286.5 387.3,303.6 399.7,371.5 388.6,400 447.9,409.2 478.3,399.8 475.7,386.4 478.3,336.3 
	488.6,306.7 460.9,287.5 "/>
<polygon class="st4" points="416.1,423.1 435.2,428.7 425.9,451.4 400.6,441.6 "/>
<polygon class="st4" points="442.7,423.1 419.2,434.9 419.2,452.8 445.7,449.7 "/>
<path class="st3" d="M408.7,457.1c0,0,40.8,27.2,56.2,16.1s24.1-25.3,21-27.2c-3.1-1.9-12.4-4.9-12.4-4.9l-51.9,10.5L408.7,457.1z"
	/>
<path class="st3" d="M356.8,436.7c0,0-21,32.1-1.2,37.1c19.8,4.9,69.6-15.4,69.6-15.4l-3.5-26.6l-9.3,9.3L356.8,436.7z"/>
<g>
	<path id="uuid-f90347b5-01d3-4a65-adde-e3fff0e81842-448" class="st4" d="M487.7,214.4c-5.8-5.3-7.7-12.7-4.3-16.3
		c3.4-3.7,10.8-2.3,16.6,3c2.3,2.1,4.1,4.7,5.3,7.7l24.2,22.9l-11,11.1L495.7,219C492.7,218.1,489.9,216.5,487.7,214.4L487.7,214.4z
		"/>
	<path class="st2" d="M481.1,285.5l43.8-21.4l-22.6-39l7.1-14.4c0,0,55.1,30.7,49.6,53.1s-60.2,63.4-77.6,56.9
		c-5.3-2-8.4-5.6-10.1-9.5C467.1,301.4,471.6,290.1,481.1,285.5L481.1,285.5z"/>
</g>
<path class="st3" d="M393.9,274.9c1.3-4,4-7.6,5.1-11.7c1.6-5.4,4.9,6.6,5.2,1c0.6-10.7,17-38.3,26.3-43.6
	c9.3-5.3,14.7-3.7,24.2,1.3c0,0,4.6,0.3,10.4,3.1c5.8,2.8,10.9,7.4,13.2,13.4c1.8,4.8,1.6,10,2.2,15.1c1.7,14.1,9.5,27.5,7.8,41.5
	c-0.5,4.4-2.2,8.9-5.8,11.5c-3.6,2.6-9.4,2.3-11.8-1.4c-0.8-1.3-1.1-2.8-1.8-4.1c-0.7-1.3-1.9-2.6-3.4-2.5c-2.3,0.1-3.4,3.1-2.5,5.2
	s3,3.3,5,4.5c-4.7,2.1-10.5,1.5-14.6-1.7c-4.1-3.1-6.3-8.5-5.6-13.6c1.1-7.2,11.5-5.7,12.8-12.8c0.9-5.2,4-13.9,3.2-19.1
	c-0.9-5.2-5,1.1-0.6-1.9c-4.8,2.3-15-13.4-20-15.2c-5-1.8-9.2-5.6-11.5-10.4c-5.3,7.7-10,5.6-11.9,14.7s1.3,37.3,9.1,42.5
	c-3.1,2.1-7-2.2-8.5,1.3c-0.8,2-1.4,4.1-2.8,5.8c-2.6,3.1-7.5,3.3-11.4,2c-4.8-1.6-8.9-5.2-11.2-9.8S392.4,279.8,393.9,274.9
	L393.9,274.9z"/>
<g>
	<path id="uuid-bae71f6d-0a8e-4bcd-ae8c-7ec40a5eb615-449" class="st4" d="M327,268.8c-1.4-7.7-6.6-13.3-11.5-12.4
		s-7.8,7.9-6.4,15.6c0.5,3.1,1.8,6,3.7,8.5l6.4,32.7l15.3-3.3l-7.9-31.9C327.5,275.1,327.7,271.9,327,268.8L327,268.8z"/>
	<path class="st2" d="M390.6,301.4l-41.5,25.5l-20.8-40l-16-1.7c0,0-3.6,63,18.2,70.4s85.8-16.8,89.6-35.1c1.2-5.5-0.2-10-2.7-13.6
		C411.6,298.1,399.7,295.8,390.6,301.4L390.6,301.4z"/>
</g>
<polygon class="st6" points="617.1,349 468.4,396 468.4,215 617.1,168 "/>
<path class="st7" d="M467.4,397.4V214.3l150.7-47.6v183.1L467.4,397.4z M469.4,215.7v178.9l146.7-46.4V169.4L469.4,215.7z"/>
<polygon class="st6" points="253,389.2 372.2,426.8 372.2,281.7 253,244 "/>
<path class="st7" d="M373.2,428.2l-1.3-0.4L252,389.9V242.6l1.3,0.4l119.9,37.9V428.2z M254,388.4l117.2,37V282.4l-117.2-37V388.4z"
	/>
<path class="st8" d="M504.5,226.2c-1.7,8.9,1.4,18.5,7.9,24.7c6.5,6.2,16.3,8.8,25.1,6.6c8.3-2.1,16.1-10.8,12.6-18.7
	c-2.5-5.6-10.2-7.7-15.6-5s-8.5,9.1-8.2,15.2s3.6,11.8,7.9,16.1c11.3,11.2,29.4,14.1,39.3,26.6c8.7,10.9,8.4,27.9-0.6,38.5
	s-25.8,13.5-37.9,6.7c-5-2.8-9.3-7.4-10.5-13s1.3-12.2,6.5-14.5c9.9-4.4,19.8,7.4,30.6,7.6c6.2,0.1,12.2-4.2,14.1-10.1
	c1.9-5.9-0.4-12.9-5.4-16.5"/>
<path class="st8" d="M295.3,352.8c1.9,5.6-2,12.5-7.9,13.6s-12.1-3.7-12.4-9.6s5.3-11.4,11.2-11c9.5,0.7,15.1,13.8,24.7,13.2
	c6.5-0.4,10.6-7.1,13-13.2c2.8-7,4.8-14.3,6-21.7c1-6.2,1.5-12.6,0-18.7s-5.2-11.9-10.8-14.7c-8.5-4.3-20.1-0.1-24.2,8.5
	s-0.1,20,8.2,24.7c10.4,5.8,24.8,1.6,34.2,8.9c7.6,5.8,8.9,16.5,9.6,26.1c0.4,6.1,0.9,12.2-0.4,18.2s-4.4,11.8-9.7,14.9
	c-4,2.3-9.3,2.8-13.1,0.2s-5.3-8.5-2.3-12.1c2.4-2.9,6.9-3.3,10.4-2.1s6.5,3.8,9.3,6.4"/>
<path class="st1" d="M198,57.6l-8.3,31.7l-31.7-6.2c0,0,12.5-22.9,9.4-33.3L198,57.6L198,57.6z"/>
<g>
	<polygon class="st1" points="164.5,470.7 183.6,470.7 192.7,397 164.5,397 	"/>
	<path class="st3" d="M230,470.3L230,470.3c0.6,1,0.9,4.2,0.9,5.4l0,0c0,3.6-2.9,6.5-6.5,6.5h-59.2c-2.4,0-4.4-2-4.4-4.4v-2.5
		c0,0-2.9-7.4,3.1-16.5c0,0,7.5,7.1,18.7-4l3.3-6l23.9,17.5l13.2,1.6C225.9,468.2,228.5,467.8,230,470.3L230,470.3L230,470.3z"/>
</g>
<path class="st3" d="M217.5,257.4l-26.3,179.2h-33l4.4-102.3l2.3-53.8l-6.7-25.6c0,0-3.1-5.7-5.6-12.6c-2.9-7.8-5.2-17.1-1.8-21.5
	c1.3-1.6,4.5-2.8,8.9-3.7c2.7-0.6,5.9-1,9.2-1.3c19.5-1.9,47.3-0.7,47.3-0.7l0.7,23.3l0.4,13L217.5,257.4L217.5,257.4z"/>
<g>
	<polygon class="st1" points="130.8,462 149.7,464.7 169.4,393.1 141.5,389 	"/>
	<path class="st3" d="M195.7,471.1L195.7,471.1c0.4,1.1,0.3,4.3,0.1,5.5l0,0c-0.5,3.5-3.8,6-7.4,5.5l-58.6-8.6
		c-2.4-0.4-4.1-2.6-3.7-5l0.4-2.4c0,0-1.8-7.8,5.5-15.9c0,0,6.4,8.2,19.1-1.3l4.1-5.4l21.1,20.8l12.9,3.5
		C191.9,468.4,194.6,468.4,195.7,471.1L195.7,471.1L195.7,471.1z"/>
</g>
<path class="st3" d="M218,227.5l-3.6,31.1l-19.7,65.6l-32.4,107.9l-32.7-4.8l29.3-153.5l-2.9-26.3c0,0-0.9-2.6-2-6.4
	c-2.2-7.6-4.9-19.9-1.9-26.2c0.4-0.9,0.9-1.6,1.5-2.2c1.2-1.1,3.5-1.8,6.7-2.2c13.3-1.5,40.7,2.8,52.9,4.9L218,227.5L218,227.5z"/>
<path class="st2" d="M192.8,80l35.9,45.3l-6.4,47.2l-5.5,48l-65-9.9c0,0,14-33.8,15.6-35.4s5.5,2.3,2.7-2.8s-5.9-5-3.3-7.7
	s-20.3-36.4-20.3-54.6s10.9-32.8,10.9-32.8L192.8,80L192.8,80z"/>
<circle class="st1" cx="184.4" cy="39.4" r="24.2"/>
<path class="st3" d="M183.3,85.6c0,0,3.6-28.6,4.3-37s12.4-21.3,12.4-21.3l8.3,6.7c0,0,7,0,2.2-10.2S196.7,12,196.7,12
	s-1-13.5-17.6-11.9c-16.7,1.6-24,15.1-24,15.1s-1-17-11.5-4.5s-16.7,17.6-5.4,21.8c11.2,4.2,19.5,1,19.5,1s-10.9,2.2-9,9.9
	S123.4,86,135.9,89.8s40.4,13.1,43.6,7S183.3,85.6,183.3,85.6L183.3,85.6z"/>
<path class="st1" d="M283,258.4c4.6-3.8,3.5-12.8-2.6-20.1c-2.6-3.2-5.8-5.5-8.9-6.8l-3.5-4.1l-45.4-57.9c0,0-24.9-57.4-32.4-63.6
	c-7.4-6.2-16.3-3.1-16.3-3.1l-7,8.5l42.2,80.2l43.5,44.5l5.9,6.2c0.7,3.3,2.4,6.8,5,9.9C269.7,259.5,278.4,262.2,283,258.4
	L283,258.4z"/>
<path class="st2" d="M164.4,98.4c0,0,11.1,57.7,23.8,66.2l25.2-19.6c0,0,2.2-0.1-1.9-4.7s-3.1-14.6-3.1-14.6s1.8,2.4-2.2-0.9
	c-4-3.3-0.3-26.1-0.3-26.1L164.4,98.4L164.4,98.4z"/>
</svg>
