<?xml version="1.0" encoding="utf-8"?>
<!-- Generator: Adobe Illustrator 27.0.0, SVG Export Plug-In . SVG Version: 6.00 Build 0)  -->
<svg version="1.1" id="圖層_1" xmlns="http://www.w3.org/2000/svg" xmlns:xlink="http://www.w3.org/1999/xlink" x="0px" y="0px"
	 viewBox="0 0 654.7 360" style="enable-background:new 0 0 654.7 360;" xml:space="preserve">
<style type="text/css">
	.st0{fill:none;}
	.st1{opacity:0.1;enable-background:new    ;}
	.st2{fill:#F2F2F2;}
	.st3{fill:#E6E6E6;}
	.st4{fill:#FFB6B6;}
	.st5{fill:#2F2E41;}
	.st6{fill:#C6332E;}
	.st7{fill:#CCCCCC;}
	.st8{fill:#FFFFFF;}
	.st9{fill:#3F3D56;}
	.st10{fill:url(#SVGID_1_);}
</style>
<pattern  y="360" width="26.5" height="9" patternUnits="userSpaceOnUse" id="e28a9de8-4fee-4e00-8e03-00a0f3e" viewBox="0 -9 26.5 9" style="overflow:visible;">
	<g>
		<rect y="-9" class="st0" width="26.5" height="9"/>
		<rect y="-9" class="st0" width="26.5" height="9"/>
		<path class="st1" d="M26.3-4.8c-0.6-0.8-1.6-1.3-2.7-1.1c-0.2,0-0.4,0.1-0.7,0.1C23-5.9,22.9-6,22.9-6c-0.6-0.8-1.6-1.3-2.7-1.1
			c-1.1,0.2-2.1,0.6-3,1.4c-1,0.8-2.3,1.2-3.6,1.1C12.2-5,10.9-5.4,9.7-6C8.9-6.4,8.1-5.1,9-4.7c0.8,0.4,1.7,0.7,2.6,1
			c-0.7,0.3-1.3,0.6-1.9,1.1C8.6-1.8,7.3-1.4,6-1.5C4.7-1.8,3.4-2.2,2.1-2.8C1.3-3.2,0.5-1.9,1.4-1.5c2.2,1,4.8,2.1,7.2,1.2
			c1-0.5,2-1.1,3-1.8c0.7-0.4,1.9-0.7,2.4,0c0.3,0.4,0.8,0.4,1.1,0.2c0.1-0.1,0.2-0.3,0.3-0.4c1.3,0.5,2.8,0.5,4.2,0
			c1-0.5,2-1.1,3-1.8c0.7-0.4,1.9-0.7,2.4,0C25.6-3.3,26.9-4.1,26.3-4.8z M21.6-5.3c-0.3,0.2-0.7,0.4-1,0.6c-1,0.8-2.3,1.2-3.6,1.1
			c-0.2,0-0.4-0.1-0.6-0.1c1-0.4,1.8-1.1,2.8-1.7C19.8-5.7,21.1-6,21.6-5.3C21.6-5.3,21.6-5.3,21.6-5.3z"/>
		<path class="st1" d="M13-7.1c-0.5-0.7-1.8-0.4-2.4,0c-1,0.7-2,1.3-3,1.8c-2.4,0.9-5-0.2-7.2-1.2c-0.9-0.4-0.1-1.7,0.8-1.3
			C2.4-7.2,3.7-6.8,5-6.5c1.3,0.1,2.6-0.3,3.6-1.1c0.9-0.7,1.9-1.2,3-1.4c1-0.1,2.1,0.3,2.7,1.1C14.9-7.1,13.6-6.3,13-7.1z"/>
	</g>
</pattern>
<path class="st2" d="M555.7,239H381.9c-24.6,0-44.6,20-44.6,44.6V358h14v-41c0-24.6,20-44.6,44.6-44.6h145.7
	c24.6,0,44.6,20,44.6,44.6v41h14v-74.4C600.3,259,580.3,239,555.7,239z"/>
<ellipse class="st3" cx="506.8" cy="244.5" rx="45.5" ry="6.5"/>
<path class="st2" d="M541.2,246.1h-60.6c-15-14.3-25.7-28.2-17.1-39.6c0-6.9,5.6-12.4,12.4-12.4l0,0h69.9c6.9,0,12.4,5.6,12.4,12.4
	C561.5,219.6,555.7,232.8,541.2,246.1z"/>
<path class="st2" d="M530.3,178.4c-1.5,0.1-2.9-1.1-2.9-2.7c0-0.8,0.3-1.6,0.9-2.2l0.2-0.8c0-0.1-0.1-0.1-0.1-0.2
	c-1.6-3.8-6-5.6-9.9-4c-1.8,0.8-3.3,2.2-4,4.1c-2.3,5.5-5.2,11-5.9,16.8c-0.3,2.6-0.2,5.2,0.4,7.7c-5.3-11.7-8.1-24.3-8.1-37.1
	c0-3.2,0.2-6.4,0.5-9.6c0.3-2.6,0.7-5.2,1.2-7.8c2.9-14,9-27.2,17.9-38.3c4.3-2.4,7.8-6,10-10.4c0.8-1.6,1.4-3.3,1.7-5
	c-0.5,0.1-1.8-7.4-1.5-7.8c-0.7-1-1.9-1.5-2.6-2.5c-3.7-5-8.8-4.1-11.4,2.7c-5.7,2.9-5.7,7.6-2.2,12.2c2.2,2.9,2.5,6.8,4.5,9.9
	c-0.2,0.3-0.4,0.5-0.6,0.8c-3.7,4.7-6.8,9.7-9.5,15.1c0.6-6-0.1-12-2.3-17.6c-2.2-5.2-6.2-9.6-9.8-14.1c-4.3-5.4-13.1-3.1-13.8,3.8
	c0,0.1,0,0.1,0,0.2c0.5,0.3,1,0.6,1.6,1c1.7,1.2,2.2,3.5,1.1,5.3c-0.6,0.9-1.5,1.5-2.6,1.6l-0.1,0c0.2,1.9,0.5,3.8,1,5.7
	c-4.6,17.7,5.3,24.2,19.4,24.5c0.3,0.2,0.6,0.3,0.9,0.5c-2.7,7.6-4.4,15.5-5,23.5c-0.4,4.7-0.3,9.5,0.1,14.2l0-0.2
	c-1-5.3-3.8-10-8-13.4c-6.1-5-14.8-6.9-21.4-10.9c-2-1.3-4.7-0.7-6,1.3c-0.6,0.9-0.8,1.9-0.7,2.9c0,0.1,0,0.1,0,0.2
	c1,0.4,1.9,0.9,2.9,1.4c0.5,0.3,1,0.6,1.6,1c1.7,1.2,2.2,3.5,1.1,5.3c-0.6,0.9-1.5,1.5-2.6,1.6l-0.1,0c-0.1,0-0.1,0-0.2,0
	c1.7,4,4,7.7,7,10.9c2.9,15.5,15.2,16.9,28.3,12.4h0c1.4,6.3,3.5,12.4,6.2,18.2h22.3c0.1-0.2,0.2-0.5,0.2-0.8
	c-2.1,0.1-4.1,0-6.2-0.4c1.7-2,3.3-4.1,5-6.1c0,0,0.1-0.1,0.1-0.1c0.8-1,1.7-2.1,2.5-3.1l0,0C531.4,184.7,531.1,181.5,530.3,178.4
	L530.3,178.4z"/>
<polygon class="st4" points="353.7,246 361.7,238.4 336.1,203.9 324.3,215.1 "/>
<path class="st5" d="M345.8,243l12-12.9l5.2,5.5l20.1-3.2c2.6-0.4,5,1.4,5.4,3.9c0.2,1.5-0.3,3.1-1.4,4.2L372,254.9l-7.8-2.9
	l4.1,6.4l-5.7,5.5L345.8,243z"/>
<path class="st5" d="M352.3,220l-11,15c-9.3-5-39-24.6-61.8-35c-14.7-6.7-26.1-11.8-26.1-11.8s-1.5,2.2-4,5.6
	c-8.9,12.5-30,41.6-32,40.5c-2.5-1.4-5.4,1.1-5.1,6.1c0.3,3.7-5.9,6.3-9.3,7.5c-1.3,0.4-2.1,0.7-2.1,0.7c-0.6,0.4-1.2,0.7-1.7,1.1
	c-18.5,11.3-40.2,8.1-55.1-4c-10.8-8.7-17.3-21.7-17.8-35.5l-1.3-31l45-2l8,15.2l14.2-11.6l31.1-25.4l11.4-9.3c0,0-0.3,0,0.1-1.4
	c1.4-0.8,2.9-1.4,4.5-1.9c0.3-0.1,0.5-0.2,0.8-0.2c14.7-4.3,25.8,6.9,25.8,6.9s68,46,70.6,46.4c2.7,0.4,4.2,4.7,4.5,5.7
	c0.3,1,4.6,6.4,6.5,6.3C353.3,207.6,352.3,220,352.3,220z"/>
<path class="st4" d="M217.4,127.2c-2.5,0.8-4.6,2.8-5.5,5.3l-41.3-0.2l-22-30.4l-16.3,7.2l26.6,48.1l58.1-13l0-0.1
	c4.6,1.8,9.8-0.5,11.6-5.1c1.8-4.6-0.5-9.8-5.1-11.6C221.5,126.6,219.4,126.5,217.4,127.2L217.4,127.2z"/>
<path class="st6" d="M140.9,81.2l-0.9,0.1c-9.3,1.4-15.8,9.9-14.7,19.2c0.7,5.3,1,10.1,0.5,11c-1.4,2.3-2,4.3,0.8,4.6
	s-3-1.4,5.9,0.1s7.3-3.3,14.6-3.6s12.2,1.6,14.5-2.5s8.7-4.3,5.2-8.3s-4.5-0.5-7.3-9.1c0-0.1-0.1-0.2-0.1-0.3
	C156.8,84.7,149,79.9,140.9,81.2z"/>
<path class="st2" d="M116.8,70.6c-1.1,1-2.2,2-3.4,2.9c-0.3,0.3-0.7,0.5-1,0.8c-10.1,6.9-20.2,3.9-28-3.2
	C72.4,59.8,65.6,38.6,71.8,27.8c14-17.1,32.2-13.4,43.3-1.8C125.9,37.3,129.9,56.1,116.8,70.6z"/>
<path class="st2" d="M160.9,84.8c-0.9-0.5-1.7-1.1-2.6-1.6c-0.4-0.5-0.8-1-1.2-1.6L160.9,84.8z"/>
<path class="st5" d="M136.4,39.4c13.3,10.1,28.1,18.2,30.9,29.3c0,0-1.7-17.5,6.1-14.2c13.1,5.6,8.7-24.8,5-29.7
	c-6.1-8.3-26.8-13-26.8-13L137,19.9L136.4,39.4z"/>
<path class="st7" d="M197.7,355.8c0.6,1.6,2.1,2.7,3.8,2.7l16.4-0.4c1.7,0,3.2-1.2,3.7-2.9l2.3-24.8c0.8,0.4,1.7,0.6,2.6,0.5
	c3.3-0.1,5.9-2.8,5.8-6.1c-0.1-3.3-2.8-5.9-6.1-5.8c0,0,0,0,0,0c-0.4,0-0.7,0-1.1,0.1c-0.8-0.8-1.9-1.3-3-1.3l-25.2,0.7
	c-0.2,0-0.4,0-0.6,0.1c-2.1,0.4-3.5,2.5-3.1,4.6c0,0.2,0.1,0.4,0.1,0.5L197.7,355.8z M224.4,328.7l1.6-5.9c0.2-0.7,0.2-1.4,0-2.1
	c0.1,0,0.2,0,0.2,0c2.4,0,4.3,1.8,4.4,4.2c0,2.3-1.8,4.3-4.2,4.4C225.8,329.3,225,329.1,224.4,328.7L224.4,328.7z"/>
<path class="st8" d="M196.3,318.6c0.5,3.1,6.6,5.2,13.8,4.9c6.7-0.3,12.1-2.7,13.1-5.4c-0.4-0.1-0.8-0.2-1.1-0.2l-25.2,0.7
	C196.8,318.5,196.5,318.5,196.3,318.6z"/>
<circle class="st4" cx="159.6" cy="28.7" r="23"/>
<path class="st5" d="M151.3,19.9l-0.9,3.9l15.5,3.5c0-1.6,0.7-3.1,1.9-4.2c-0.3,1.5-0.3,3.1,0.1,4.6c8.3,4.7,7.9,6.3,14.6,5.1
	c1.9,0.4,3.8-0.8,4.2-2.7l0,0c2.7-11.9,3.6-24.1-8.3-27.1c-12-3-24.1,4.3-27.1,16.2C151.4,19.6,151.3,19.8,151.3,19.9z"/>
<path class="st7" d="M268.7,164.5c-0.1-0.1-0.1-0.1-0.2-0.2c-0.2-0.2-0.4-0.4-0.6-0.5l-1.7-0.9l-11.2-12.4c-0.6-0.3-1.4-0.4-2.1-0.2
	l0,0l-4.8,1.5l-4.1,1.3l-5.8,1.8L199.1,167l-25.7,8c-1.4,0.5-2.3,2-1.8,3.4c0.1,0.4,0.3,0.7,0.6,1l0.8,0.9l1.7,1.9l4,8.3l1.1,1.2
	c0.7,0.8,1.8,1.1,2.9,0.8l84.8-23.6c1.5-0.5,2.3-2.1,1.8-3.6C269.1,165.1,269,164.8,268.7,164.5L268.7,164.5z"/>
<path class="st7" d="M263.7,41.8l-1.6,0.3c-0.5,0.1-0.9,0.3-1.1,0.7l-0.7,1l-6.5,16.3c-0.3,0.4-0.4,0.8-0.3,1.3l0.8,4.7l-2.9,83
	c0.1,0.4,0.3,0.8,0.6,1.1l12.7,17l0.3,0.2l0.6,0.5c0.3,0.3,0.7,0.4,1.1,0.4l1.1-0.1c0.5,0,1-0.3,1.3-0.6c0.3-0.4,0.4-0.9,0.4-1.4
	l-3.7-122.9C265.5,42.3,264.6,41.7,263.7,41.8L263.7,41.8z"/>
<polygon class="st6" points="260.9,48.3 255.2,65.9 252.9,136.2 261.9,144.2 "/>
<path class="st6" d="M146.1,57.4l-7.4-3.5l-7.3,12.7c0,0-19.5,27.9-19.8,48s3.2,26.1,3.2,26.1s-8.4,6.3-4.2,10.1s13.5,5.5,6.4,7.2
	s-5.3,18.6,2.7,21.6s51,3,51,3c-0.8-2.7-0.1-5.6,1.9-7.5c3.3-3.3,6.3-0.9,3.3-6.1s-8-2.2-4-9.2s4-9.1,4-9.1s-2.1-49.4-14.4-66.2l0,0
	l0.3-0.5l0,0C162.5,72.8,156.3,62.2,146.1,57.4z"/>
<path class="st5" d="M155.1,35.4c2.8-12.4,15.2-20.1,27.6-17.3c1.5,0.3,2.9,0.8,4.3,1.4c-1.1-3.2-3.3-5.9-6.1-7.6l-17.4-7.6
	c-8.6-2-22.2-7.5-28.4-2.2c-5.7,4.9-2.9,14.4-8.2,19.8c-5.8,5.9-6.3,12.8-4.6,16.8c1.9,4.6,5.7,10.9,10.4,12.3
	c0.2-1.6,1.1-3.1,2.3-4.2c-0.3,1.5-0.4,3.1-0.1,4.7l28.6,22.8c-2.7-2.3-4.9-8.3-6.5-15.1c-0.9-4-6.5-5.4-2-12.2
	S154.5,38.1,155.1,35.4z"/>
<path class="st2" d="M144.4,265.4h10l0,0v79c0,2.8-2.2,5-5,5l0,0c-2.8,0-5-2.2-5-5V265.4L144.4,265.4z"/>
<path class="st2" d="M129.5,79.1"/>
<path class="st2" d="M115.4,357.7l14-18.6c4.4-5.9,8.7-12,13.4-17.7c1.7-2,3.6-4.1,6.1-4.7c1-0.2,2-0.2,2.9,0.1c1.1,0.4,2.1,1,3,1.8
	c2.1,1.9,3.8,4.1,5.1,6.6c1.7,3,3.4,6.1,4.9,9.3c3.4,7.2,6.2,14.7,8.3,22.4c1,3.7,6.8,2.1,5.8-1.6c-2.1-7.5-4.8-14.9-8-21.9
	c-1.6-3.5-3.3-6.9-5.2-10.2c-1.6-3-3.5-5.7-5.8-8.1c-2.3-2.5-5.4-4-8.8-4.5c-3.6-0.4-6.9,1.2-9.6,3.5c-2.7,2.3-4.7,5.3-6.8,8.1
	l-7.4,9.9l-17,22.5c-1,1.3-0.2,3.4,1.1,4.1C112.7,359.5,114.5,359.1,115.4,357.7L115.4,357.7z"/>
<path class="st4" d="M211.4,157.4c-2.7,0-5.2,1.2-6.9,3.2l-39.1-13.2l-11.2-35.7l-17.8,1.7l10,54l59.3,6.1l0-0.1
	c3.8,3.2,9.5,2.6,12.7-1.2s2.6-9.5-1.2-12.7C215.5,158.2,213.5,157.4,211.4,157.4L211.4,157.4z"/>
<path class="st6" d="M153.4,89.6l-0.9-0.2c-9.3-1.7-18.1,4.4-20,13.6c-1,5.2-2.2,9.9-3,10.6c-2.1,1.8-3.2,3.4-0.7,4.6
	s-2.4-2.3,5.6,1.9s8-0.8,15,1.2s11.1,5.3,14.5,2.2s9.6-1.3,7.5-6.2s-4.1-1.9-4.1-10.9c0-0.1,0-0.2,0-0.3
	C167.3,98,161.4,91,153.4,89.6z"/>
<ellipse class="st3" cx="428.8" cy="253.5" rx="39.5" ry="6.5"/>
<path class="st9" d="M468.5,216c0,9.5-3.4,18.8-9.7,26c-1.6,1.8-3.3,3.5-5.2,4.9c-2.8,2.3-6,4.2-9.3,5.6h-30.7
	c-3.4-1.4-6.5-3.3-9.3-5.6c-1.9-1.5-3.6-3.1-5.2-4.9c-1.8-2.1-3.4-4.4-4.8-6.9c-10.5-19.1-3.6-43.2,15.6-53.7
	c19.1-10.5,43.2-3.6,53.7,15.6c2.5,4.6,4.1,9.6,4.7,14.8C468.4,213.1,468.5,214.5,468.5,216z"/>
<path class="st6" d="M458.8,241.9c-1.6,1.8-3.3,3.5-5.2,4.9h-49.4c-1.9-1.5-3.6-3.1-5.2-4.9L458.8,241.9z"/>
<path class="st6" d="M468.3,211.7c-8.3,12.8-23.5,22.8-42,25.8c-10.7,1.8-21.7,1-32-2.4c-10.5-19.1-3.6-43.2,15.6-53.7
	c19.1-10.5,43.2-3.6,53.7,15.6C466.1,201.5,467.7,206.5,468.3,211.7z"/>
<pattern  id="SVGID_1_" xlink:href="#e28a9de8-4fee-4e00-8e03-00a0f3e" patternTransform="matrix(0.6181 0 0 -0.6181 -3242.5576 -12227.4082)">
</pattern>
<path class="st10" d="M468.3,211.7c-8.3,12.8-23.5,22.8-42,25.8c-10.7,1.8-21.7,1-32-2.4c-10.5-19.1-3.6-43.2,15.6-53.7
	c19.1-10.5,43.2-3.6,53.7,15.6C466.1,201.5,467.7,206.5,468.3,211.7z"/>
<polygon class="st4" points="339.5,272.1 348.2,265.4 326.5,228.4 313.6,238.3 "/>
<path class="st5" d="M332,268.3l13.4-11.6l4.6,6l20.4-1c2.6-0.1,4.8,1.9,4.9,4.5c0.1,1.5-0.6,3-1.8,4L356.7,283l-7.4-3.7l3.4,6.8
	l-6.3,4.8L332,268.3z"/>
<path class="st5" d="M340.9,246.1l-12.5,13.7c-8.7-5.9-36.2-28.7-57.7-41.4C256.8,210.3,246,204,246,204s-1.8,2-4.5,5.1
	c-10.2,11.5-34.3,38.1-36.2,36.8c-2.4-1.6-5.5,0.5-5.7,5.5c-0.1,3.7-6.6,5.7-10.1,6.5c-1.3,0.3-2.2,0.4-2.2,0.4
	c-0.6,0.3-1.2,0.6-1.8,0.9c-19.6,9.3-40.8,3.8-54.4-9.9c-9.8-9.8-14.9-23.4-13.9-37.2l2-31l45,2.8l6.3,16l15.4-10l33.6-21.9l12.3-8
	c0,0-0.3-0.1,0.2-1.4c1.5-0.6,3-1.1,4.6-1.4c0.3-0.1,0.5-0.1,0.8-0.2c15-2.7,24.9,9.6,24.9,9.6s62.6,53,65.2,53.7
	c2.6,0.7,3.7,5.2,3.9,6.2c0.2,1,3.9,6.8,5.8,6.9C343.2,233.9,340.9,246.1,340.9,246.1z"/>
<path class="st2" d="M138.4,281.3c-9.4-20.1-78-0.7-82.5-44.7c-1.2-12.8,8.4-23.9,17.5-33c64.9-44.9-61.8-78-12.6-122.3
	c7.5-4.4,15.4-7.9,23.7-10.5c11.4-3.4,19.9-2.7,26.3,0.8c0.9,0.5,1.8,1.1,2.7,1.7c28.2,20.9,11.1,105.1,40.8,131.2
	c11.3,8.9,61.2,26.1,69.2,39.6c0.2,0.4,0.4,0.7,0.6,1.1c2.7,5.3-59.1,19.6-54,32C177,294.4,137.8,319.2,138.4,281.3z"/>
<path class="st2" d="M193,175.8c0,6.4,5.4,18.5-26,18.5s-87.6-12.2-87.6-18.5s25.4-11.5,56.8-11.5S193,169.5,193,175.8z"/>
</svg>
