<?xml version="1.0" encoding="utf-8"?>
<!-- Generator: Adobe Illustrator 27.0.0, SVG Export Plug-In . SVG Version: 6.00 Build 0)  -->
<svg version="1.1" id="圖層_1" xmlns="http://www.w3.org/2000/svg" xmlns:xlink="http://www.w3.org/1999/xlink" x="0px" y="0px"
	 viewBox="0 0 1000 645.1" style="enable-background:new 0 0 1000 645.1;" xml:space="preserve">
<style type="text/css">
	.st0{fill:#3F3D56;}
	.st1{fill:#C6332E;}
	.st2{fill:#E6E6E6;}
	.st3{fill:#FFB8B8;}
	.st4{fill:#2F2E41;}
</style>
<polygon class="st0" points="261,448 261,398.5 231.5,398.5 231.5,477.5 310.5,477.5 310.5,448 "/>
<rect x="270.5" y="359.5" class="st1" width="78.9" height="78.9"/>
<circle class="st2" cx="792" cy="131" r="131"/>
<path class="st0" d="M817.6,154.7c-4,14.6-17.5,23.7-17.5,23.7s-7.1-14.6-3.2-29.3s17.5-23.7,17.5-23.7S821.6,140.1,817.6,154.7z"/>
<path class="st0" d="M786.9,231.2c7.5,13.1,4.4,29.1,4.4,29.1s-15.4-5.3-22.9-18.4s-4.4-29.1-4.4-29.1S779.4,218,786.9,231.2z"/>
<path class="st0" d="M779.1,61.1c7.5,13.1,4.4,29.1,4.4,29.1s-15.4-5.3-22.9-18.4s-4.4-29.1-4.4-29.1S771.5,48,779.1,61.1z"/>
<path class="st0" d="M791.2,261.6l-0.4-1.7l0.2,0.8l-0.2-0.8c0.1,0,6.1-1.6,10.7-9.8c6-10.9,9.7-33.8-6.5-81.5
	c-14.9-43.9-13.2-77.8-9.1-98.4c4.5-22.5,12.3-34.4,12.7-34.9l1.4,1c-0.1,0.1-8.1,12.2-12.4,34.3c-4,20.5-5.7,54,9,97.4
	c16.5,48.4,12.5,71.8,6.3,83C798,259.9,791.5,261.5,791.2,261.6z"/>
<circle class="st1" cx="799.2" cy="35.8" r="21.8"/>
<path class="st2" d="M131.4,536.2c-3.9,14.4-17.2,23.3-17.2,23.3s-7-14.4-3.1-28.8s17.2-23.3,17.2-23.3S135.3,521.8,131.4,536.2z"/>
<path class="st2" d="M101.2,611.5c7.4,12.9,4.3,28.7,4.3,28.7s-15.2-5.2-22.6-18.2s-4.3-28.7-4.3-28.7S93.8,598.5,101.2,611.5z"/>
<path class="st2" d="M93.4,444c7.4,12.9,4.3,28.7,4.3,28.7s-15.2-5.2-22.6-18.2s-4.3-28.7-4.3-28.7S86,431,93.4,444z"/>
<path class="st2" d="M105.4,641.5l-0.4-1.7l0.2,0.8l-0.2-0.8c0.1,0,6-1.5,10.5-9.7c5.9-10.7,9.6-33.3-6.4-80.3
	c-14.7-43.2-13-76.6-8.9-97c4.4-22.1,12.2-33.9,12.5-34.4l1.4,1c-0.1,0.1-7.9,12-12.2,33.8c-4,20.2-5.7,53.2,8.9,96
	c16.2,47.6,12.3,70.8,6.2,81.8C112.1,639.8,105.7,641.4,105.4,641.5z"/>
<circle class="st2" cx="113.3" cy="419" r="21.5"/>
<path class="st3" d="M478,186.6l13.8,35.7l35.7,75.4c0,0,36.6,49.2,17.2,52.9s-32-44.3-32-44.3l-49.9-77.3L478,186.6z"/>
<circle class="st3" cx="449.5" cy="77.1" r="30"/>
<path class="st3" d="M426.5,88.1c0,0,1,33-12,40c0,0,27-1,41,21h13c0,0-20-14-10-48L426.5,88.1z"/>
<path class="st4" d="M570.5,510.1c0,0-63,15-108-3s-50-6-93-1s-18-18-18-18s73-190,84-210s6-33,6-33l-21-29c0,0-4.9-12.6-10.2-27.3
	c-6.1-17-12.8-36.8-12.8-42.7c0-6.5,7.3-12.7,13.2-16.8c2.5-1.7,5-3.2,7.7-4.6c12.9-3.3,42.1,18.3,42.1,18.3s8,6,29,21s12,46,12,46
	l6,81C547.5,331.1,570.5,510.1,570.5,510.1z"/>
<path class="st3" d="M426.5,137.1c0,0-18-21-32,21s-17,75-17,75l-26,87c0,0-28,47-7,50s27-50,27-50l52-138
	C423.5,182.1,440.5,151.1,426.5,137.1z"/>
<path class="st4" d="M368.5,495.1l-27,42c0,0-25,3-28,19s-12,25-12,25l4,4l19-13l2,26c0,0,11,31,29,24s-3-28-3-28l10-35l56-70
	L368.5,495.1z"/>
<path class="st4" d="M515.5,506.1l16,72c0,0-12,22-6,36s6,30,6,30h9l4-24l22,23c0,0,48,8,48-8s-26-16-26-16l-24-40l-10-73H515.5z"/>
<path class="st4" d="M434.5,32.1L434.5,32.1c1.6,0,3.3,0.2,4.9,0.5c2.9-1.4,6.1-2.1,9.3-2.2h0.8c16.3,0,29.6,14.8,29.6,33v0h-5.5
	l-0.9-6.7l-1.3,6.7h-4.6c-11.9,5.2-5.5,50.2,2.1,50.2h-8.3l-4.8-12.5l1.2,12.5h-53.2l-4.4-11.3l1.1,11.3h-6V87.2
	C394.7,56.8,412.5,32.1,434.5,32.1z"/>
</svg>
