<?xml version="1.0" encoding="utf-8"?>
<!-- Generator: Adobe Illustrator 27.0.0, SVG Export Plug-In . SVG Version: 6.00 Build 0)  -->
<svg version="1.1" id="圖層_1" xmlns="http://www.w3.org/2000/svg" xmlns:xlink="http://www.w3.org/1999/xlink" x="0px" y="0px"
	 viewBox="0 0 234 221" style="enable-background:new 0 0 234 221;" xml:space="preserve">
<style type="text/css">
	.st0{fill:#FFFFFF;}
	.st1{opacity:0.5;}
	.st2{fill:#8C8C8C;}
	.st3{fill:#C5332E;}
	.st4{fill:#C6C7C7;}
</style>
<g>
	<g>
		<path class="st2" d="M30.1,10.6c-3.7-0.2-5.8-0.2-5.9-0.2l0-4c0.1,0,2.3,0,6.1,0.2L30.1,10.6z"/>
		<path class="st2" d="M214.2,189.5c-0.5-3.9-1.1-7.8-1.8-11.6l3.9-0.7c0.7,3.8,1.3,7.8,1.8,11.7L214.2,189.5z M210.2,166.4
			c-0.8-3.8-1.8-7.7-2.8-11.4l3.9-1c1,3.8,1.9,7.6,2.8,11.5L210.2,166.4z M204.2,143.8c-1.2-3.7-2.5-7.4-3.9-11l3.7-1.4
			c1.4,3.7,2.7,7.4,3.9,11.2L204.2,143.8z M195.9,122c-1.6-3.6-3.3-7.1-5-10.5l3.6-1.8c1.8,3.5,3.5,7.1,5.1,10.7L195.9,122z
			 M185.2,101.3c-2-3.3-4.1-6.7-6.3-9.8l3.3-2.3c2.2,3.2,4.4,6.6,6.4,10L185.2,101.3z M172,82c-2.4-3.1-4.9-6.1-7.5-8.9l3-2.7
			c2.6,2.9,5.2,6,7.7,9.1L172,82z M156.5,64.7c-2.8-2.7-5.7-5.3-8.6-7.9l2.6-3c3,2.6,6,5.3,8.8,8L156.5,64.7z M138.7,49.5
			c-3.1-2.3-6.3-4.6-9.6-6.7l2.2-3.4c3.3,2.2,6.6,4.5,9.8,6.8L138.7,49.5z M119.2,36.8c-3.4-1.9-6.8-3.7-10.3-5.4l1.8-3.6
			c3.6,1.7,7.1,3.6,10.6,5.5L119.2,36.8z M98.2,26.6c-3.6-1.5-7.2-2.9-10.9-4.2l1.3-3.8c3.8,1.3,7.5,2.8,11.1,4.3L98.2,26.6z
			 M76.1,18.8c-3.7-1.1-7.5-2.1-11.3-3l0.9-3.9c3.9,0.9,7.7,1.9,11.5,3L76.1,18.8z M53.3,13.4c-3.9-0.7-7.8-1.3-11.6-1.8l0.5-4
			c3.9,0.5,7.9,1.1,11.8,1.8L53.3,13.4z"/>
		<path class="st2" d="M216.1,207.2c-0.2-2-0.3-4-0.5-5.9l4-0.4c0.2,2,0.4,4,0.5,6L216.1,207.2z"/>
	</g>
	<rect x="28.8" y="212.5" class="st2" width="177.4" height="4"/>
	<rect x="23.7" y="183.8" class="st2" width="182.5" height="4"/>
	<g>
		<rect x="2" y="183.3" class="st4" width="27.4" height="35.7"/>
		<path class="st2" d="M31.4,221H0v-39.7h31.4V221z M4,217h23.4v-31.7H4V217z"/>
	</g>
	<g>
		<rect x="204.9" y="183.3" class="st4" width="27.4" height="35.7"/>
		<path class="st2" d="M234.3,221h-31.4v-39.7h31.4V221z M206.9,217h23.4v-31.7h-23.4V217z"/>
	</g>
	<g>
		<rect x="17.3" y="2" class="st4" width="20.4" height="181.3"/>
		<path class="st2" d="M39.7,185.3H15.3V0h24.4V185.3z M19.3,181.3h16.4V4H19.3V181.3z"/>
	</g>
</g>
</svg>
