<?xml version="1.0" encoding="utf-8"?>
<!-- Generator: Adobe Illustrator 27.0.0, SVG Export Plug-In . SVG Version: 6.00 Build 0)  -->
<svg version="1.1" id="圖層_1" xmlns="http://www.w3.org/2000/svg" xmlns:xlink="http://www.w3.org/1999/xlink" x="0px" y="0px"
	 viewBox="0 0 297.5 296.5" style="enable-background:new 0 0 297.5 296.5;" xml:space="preserve">
<style type="text/css">
	.st0{fill:#FFFFFF;}
	.st1{opacity:0.5;}
	.st2{fill:#8C8C8C;}
	.st3{fill:#C5332E;}
	.st4{fill:#C6C7C7;}
</style>
<g>
	
		<ellipse transform="matrix(0.7071 -0.7071 0.7071 0.7071 -61.2421 148.1204)" class="st3" cx="148.2" cy="148" rx="147.1" ry="147.1"/>
	<g>
		<g>
			<path class="st0" d="M234.3,96.5l-85.1-45.8c-1.7-0.9-3.8-0.9-5.5,0L61.9,96.1c-1.8,1-2.9,2.9-2.9,5v92.1c0,2,1,3.9,2.8,4.9
				L84.7,212c2.7,1.6,6.2,0.8,7.9-1.9c1.6-2.7,0.8-6.2-1.9-7.9l-15.3-9.3l30.6-16.9c0.8-2,2-3.9,3.4-5.6l12-14.2l-50.9,28.1v-79.9
				L141.6,65v67.4l9.8-11.6v-56l74.5,40.1v79.7L183,161.8l-6.5,7.7l44.2,23.5l-73,42.3c-2.7,1.6-3.7,5.1-2.1,7.8
				c1.1,1.8,3,2.9,5,2.9c1,0,2-0.2,2.9-0.8l81.1-47c1.8-1,2.9-2.9,2.9-5v-91.7C237.4,99.4,236.2,97.5,234.3,96.5z"/>
		</g>
		<g>
			<path class="st0" d="M193.3,104.6c-6.7-5.7-16.6-4.9-22.3,1.8l-7.8,9.1l29.8,25.3l7.8-9.2c5.7-6.7,4.9-16.6-1.8-22.3L193.3,104.6
				z"/>
			<path class="st0" d="M114.1,173.3c-1.6,1.9-2.7,4.1-3.3,6.5l-6.3,25.7c-0.6,2.5,0.2,5.1,2.2,6.8c1.9,1.7,4.7,2.1,7.1,1.1
				l24.3-10.4c2.2-0.9,4.2-2.4,5.9-4.3l43.3-50.9l-29.8-25.3L114.1,173.3z"/>
		</g>
	</g>
</g>
</svg>
