<?xml version="1.0" encoding="utf-8"?>
<!-- Generator: Adobe Illustrator 27.0.0, SVG Export Plug-In . SVG Version: 6.00 Build 0)  -->
<svg version="1.1" id="圖層_1" xmlns="http://www.w3.org/2000/svg" xmlns:xlink="http://www.w3.org/1999/xlink" x="0px" y="0px"
	 viewBox="0 0 297.5 296.5" style="enable-background:new 0 0 297.5 296.5;" xml:space="preserve">
<style type="text/css">
	.st0{fill:#FFFFFF;}
	.st1{fill:#C6C7C7;}
	.st2{opacity:0.5;}
	.st3{fill:#8C8C8C;}
	.st4{fill:#FFFFFF;stroke:#C6C7C7;stroke-miterlimit:10;}
	.st5{fill:#C5332E;}
	.st6{fill:#C6C7C7;stroke:#8C8C8C;stroke-width:4;stroke-miterlimit:10;}
	.st7{fill:#FFFFFF;stroke:#C6C7C7;stroke-width:0.75;stroke-miterlimit:10;}
	.st8{opacity:0.7;fill:#FFFFFF;stroke:#C6C7C7;stroke-width:0.25;stroke-miterlimit:10;}
	.st9{fill:#231815;}
</style>
<g>
	
		<ellipse transform="matrix(0.7071 -0.7071 0.7071 0.7071 -61.1188 148.3757)" class="st5" cx="148.5" cy="148" rx="147.1" ry="147.1"/>
</g>
<path class="st0" d="M97.5,93.6c0-9.1,7.4-16.5,16.5-16.5h41.2V110c0,4.6,3.7,8.2,8.2,8.2h32.9v32.9H153c-3.4,0-6.2,2.8-6.2,6.2
	s2.8,6.2,6.2,6.2h43.2v28.8c0,9.1-7.4,16.5-16.5,16.5h-65.8c-9.1,0-16.5-7.4-16.5-16.5V93.6z M196.2,163.5v-12.3h28.3l-10-10
	c-2.4-2.4-2.4-6.3,0-8.7c2.4-2.4,6.3-2.4,8.7,0l20.6,20.6c2.4,2.4,2.4,6.3,0,8.7l-20.6,20.6c-2.4,2.4-6.3,2.4-8.7,0s-2.4-6.3,0-8.7
	l10-10L196.2,163.5z M196.2,110h-32.9V77.1L196.2,110z"/>
</svg>
