<?xml version="1.0" encoding="utf-8"?>
<!-- Generator: Adobe Illustrator 27.0.0, SVG Export Plug-In . SVG Version: 6.00 Build 0)  -->
<svg version="1.1" id="圖層_1" xmlns="http://www.w3.org/2000/svg" xmlns:xlink="http://www.w3.org/1999/xlink" x="0px" y="0px"
	 viewBox="0 0 297.5 296.5" style="enable-background:new 0 0 297.5 296.5;" xml:space="preserve">
<style type="text/css">
	.st0{fill:#FFFFFF;}
	.st1{fill:#C6C7C7;}
	.st2{opacity:0.5;}
	.st3{fill:#8C8C8C;}
	.st4{fill:#FFFFFF;stroke:#C6C7C7;stroke-miterlimit:10;}
	.st5{fill:#C5332E;}
	.st6{fill:#C6C7C7;stroke:#8C8C8C;stroke-width:4;stroke-miterlimit:10;}
	.st7{fill:#FFFFFF;stroke:#C6C7C7;stroke-width:0.75;stroke-miterlimit:10;}
	.st8{opacity:0.7;fill:#FFFFFF;stroke:#C6C7C7;stroke-width:0.25;stroke-miterlimit:10;}
	.st9{fill:#231815;}
</style>
<ellipse transform="matrix(0.7071 -0.7071 0.7071 0.7071 -61.2099 148.9923)" class="st5" cx="149.2" cy="148.4" rx="147.1" ry="147.1"/>
<g id="_x39_879_-_Floor_Plan">
	<g>
		<g>
			<g>
				<g>
					<g>
						<path class="st0" d="M90.5,180.2c-0.8,0-1.6-0.4-2.1-0.9c-4.6-5.2-9-7.8-13.3-7.8s-8.8,2.6-13.3,7.8c-0.8,0.9-2,1.2-3.1,0.8
							s-1.8-1.5-1.8-2.6V73.2c0-10,8.2-18.2,18.2-18.2s18.2,8.2,18.2,18.2v104.3c0,1.2-0.7,2.2-1.8,2.6
							C91.1,180.2,90.8,180.2,90.5,180.2z M75.1,165.9c4.3,0,8.5,1.7,12.6,5V73.2c0-6.9-5.7-12.6-12.6-12.6s-12.6,5.7-12.6,12.6
							v97.7C66.6,167.6,70.8,165.9,75.1,165.9z"/>
					</g>
				</g>
			</g>
		</g>
		<g>
			<g>
				<g>
					<g>
						<path class="st0" d="M233.4,232.3H96.7c-22,0-39.8-17.9-39.8-39.8V79.8c0-1.6,1.2-2.8,2.8-2.8s2.8,1.2,2.8,2.8v112.7
							c0,18.9,15.4,34.2,34.2,34.2h133.9V82.6H90.5c-1.6,0-2.8-1.2-2.8-2.8c0-1.6,1.2-2.8,2.8-2.8h142.9c1.6,0,2.8,1.2,2.8,2.8
							v149.7C236.2,231,235,232.3,233.4,232.3z"/>
					</g>
				</g>
			</g>
		</g>
		<g>
			<g>
				<g>
					<g>
						<path class="st0" d="M206.8,199.1h-92.1c-1.6,0-2.8-1.2-2.8-2.8V113c0-1.6,1.2-2.8,2.8-2.8h92.1c1.6,0,2.8,1.2,2.8,2.8v83.3
							C209.6,197.8,208.3,199.1,206.8,199.1z M117.5,193.5H204v-77.6h-86.5V193.5z"/>
					</g>
				</g>
			</g>
		</g>
		<g>
			<g>
				<g>
					<g>
						<path class="st0" d="M171.2,138.6h-56.5c-1.6,0-2.8-1.2-2.8-2.8s1.2-2.8,2.8-2.8h56.5c1.6,0,2.8,1.2,2.8,2.8
							C174,137.4,172.7,138.6,171.2,138.6z"/>
					</g>
				</g>
			</g>
		</g>
		<g>
			<g>
				<g>
					<g>
						<path class="st0" d="M155.3,138.6c-1.6,0-2.8-1.2-2.8-2.8V113c0-1.6,1.2-2.8,2.8-2.8s2.8,1.2,2.8,2.8v22.8
							C158.1,137.4,156.8,138.6,155.3,138.6z"/>
					</g>
				</g>
			</g>
		</g>
		<g>
			<g>
				<g>
					<g>
						<path class="st0" d="M164.5,199.1c-1.6,0-2.8-1.2-2.8-2.8v-39.6c0-1.6,1.2-2.8,2.8-2.8s2.8,1.2,2.8,2.8v39.6
							C167.3,197.8,166.1,199.1,164.5,199.1z"/>
					</g>
				</g>
			</g>
		</g>
		<g>
			<g>
				<g>
					<g>
						<path class="st0" d="M206.8,176.8h-92.1c-1.6,0-2.8-1.2-2.8-2.8s1.2-2.8,2.8-2.8h92.1c1.6,0,2.8,1.2,2.8,2.8
							S208.3,176.8,206.8,176.8z"/>
					</g>
				</g>
			</g>
		</g>
		<g>
			<g>
				<g>
					<g>
						<path class="st0" d="M190.4,176.8c-1.6,0-2.8-1.2-2.8-2.8v-29.8c0-1.6,1.2-2.8,2.8-2.8c1.6,0,2.8,1.2,2.8,2.8V174
							C193.2,175.5,191.9,176.8,190.4,176.8z"/>
					</g>
				</g>
			</g>
		</g>
	</g>
</g>
</svg>
