<?xml version="1.0" encoding="utf-8"?>
<!-- Generator: Adobe Illustrator 27.0.0, SVG Export Plug-In . SVG Version: 6.00 Build 0)  -->
<svg version="1.1" id="圖層_1" xmlns="http://www.w3.org/2000/svg" xmlns:xlink="http://www.w3.org/1999/xlink" x="0px" y="0px"
	 viewBox="0 0 297.5 296.5" style="enable-background:new 0 0 297.5 296.5;" xml:space="preserve">
<style type="text/css">
	.st0{fill:#FFFFFF;}
	.st1{fill:#C6C7C7;}
	.st2{opacity:0.5;}
	.st3{fill:#8C8C8C;}
	.st4{fill:#FFFFFF;stroke:#C6C7C7;stroke-miterlimit:10;}
	.st5{fill:#C5332E;}
	.st6{fill:#C6C7C7;stroke:#8C8C8C;stroke-width:4;stroke-miterlimit:10;}
	.st7{fill:#FFFFFF;stroke:#C6C7C7;stroke-width:0.75;stroke-miterlimit:10;}
	.st8{opacity:0.7;fill:#FFFFFF;stroke:#C6C7C7;stroke-width:0.25;stroke-miterlimit:10;}
	.st9{fill:#231815;}
	.st10{fill:#FFFFFF;stroke:#C5332E;stroke-width:7.6923;stroke-miterlimit:10;}
	.st11{clip-path:url(#SVGID_00000181796979432723986610000005439896050869700534_);}
	.st12{fill:#FFFFFF;stroke:#FFFFFF;stroke-width:3.09;stroke-miterlimit:10;}
	.st13{fill:#FFFFFF;stroke:#FFFFFF;stroke-width:0.515;stroke-miterlimit:10;}
</style>
<g>
	
		<ellipse transform="matrix(0.7071 -0.7071 0.7071 0.7071 -61.3354 148.3316)" class="st5" cx="148.4" cy="148.2" rx="147.1" ry="147.1"/>
	<path class="st12" d="M183.2,143.3c-23.2-10.4-46.4-10.4-69.7,0c-1-6.1-3.3-11.6-7.2-16.3c-3-3.7-6.6-6.6-10.9-8.7
		c-1.4-0.7-1.6-1.5-1.4-2.9c1.2-7.5,2.3-15.1,3.3-22.6c1-7.6,6.6-12.6,14.5-12.6c21.5,0,42.9,0,64.4,0c4,0,8.1-0.1,12.1,0.4
		c5.9,0.8,10.3,5.4,11.2,11.3c1.2,8,2.3,15.9,3.5,23.9c0.2,1.3-0.4,1.9-1.5,2.4C191.2,123.5,185.3,131.9,183.2,143.3z"/>
	<path class="st12" d="M148.4,189.3c7.1,0,14.1,0,21.2,0c14.7-0.1,27.1-12.4,27.2-27.1c0.1-6.4-0.2-12.9,0.5-19.2
		c0.9-8.9,9.8-16.2,18.7-15.9c4,0.1,6.7,3.5,6.1,7.4c-2.6,16.6-5.1,33.1-7.6,49.7c-0.8,5.2-1.6,10.4-2.5,15.6
		c-0.6,3.4-2.2,5-5.7,5.5c-7.5,1.1-14.9,2.5-22.5,3c-13.1,0.9-26.3,1.7-39.5,1.7c-18.2,0.1-36.2-1.7-54.2-4.7
		c-3.4-0.6-5-2.2-5.6-5.6c-1.7-10.8-3.4-21.6-5.1-32.4c-1.7-10.8-3.3-21.6-4.9-32.4c-0.7-4.8,2.4-8.2,7.2-7.7
		c10.4,0.9,17.9,8.9,18.1,19.4c0.1,5.3,0,10.5,0,15.8c0.1,14.6,12.5,27,27.1,27C134.1,189.3,141.3,189.3,148.4,189.3z"/>
	<path class="st12" d="M148.4,175.6c-6.8,0-13.5,0-20.3,0c-8.1,0-15.2-6-14.3-16.7c0.1-0.7,0.9-1.4,1.5-1.8
		c6.5-4.3,13.6-6.8,21.2-8.1c13.6-2.3,26.8-1,39.4,4.9c0.7,0.3,1.4,0.7,2.1,1.1c5.5,3,6.1,4.6,4.3,10.7c-1.8,6-7.1,9.9-13.6,9.9
		C161.9,175.7,155.2,175.6,148.4,175.6z"/>
	<g>
		<path class="st13" d="M109.8,226.9l-0.3-0.1c-2.9-0.7-4.8-3.6-4.1-6.6l3.6-15.7c0.7-2.9,3.6-4.8,6.6-4.1l0.3,0.1
			c2.9,0.7,4.8,3.6,4.1,6.6l-3.6,15.7C115.7,225.7,112.7,227.5,109.8,226.9z"/>
	</g>
	<g>
		<path class="st13" d="M187.3,226.9l0.3-0.1c2.9-0.7,4.8-3.6,4.1-6.6l-3.6-15.7c-0.7-2.9-3.6-4.8-6.6-4.1l-0.3,0.1
			c-2.9,0.7-4.8,3.6-4.1,6.6l3.6,15.7C181.4,225.7,184.4,227.5,187.3,226.9z"/>
	</g>
</g>
</svg>
