<?xml version="1.0" encoding="utf-8"?>
<!-- Generator: Adobe Illustrator 27.0.0, SVG Export Plug-In . SVG Version: 6.00 Build 0)  -->
<svg version="1.1" id="Layer_1" xmlns="http://www.w3.org/2000/svg" xmlns:xlink="http://www.w3.org/1999/xlink" x="0px" y="0px"
	 viewBox="0 0 169 169" style="enable-background:new 0 0 169 169;" xml:space="preserve">
<style type="text/css">
	.st0{fill:#365D96;}
	.st1{fill:#FA6541;}
	.st2{fill:#F96441;}
	.st3{fill:#375D96;}
	.st4{fill:#C5332E;}
	.st5{fill:#FFFFFF;}
</style>
<circle class="st4" cx="84.6" cy="84.5" r="84.4"/>
<path class="st5" d="M100.9,89.4c8-5.3,13.2-14.3,13.2-24.6c0-16.3-13.2-29.5-29.5-29.5S55.1,48.6,55.1,64.8
	c0,10.3,5.3,19.3,13.2,24.6c-18,6.7-30.9,24-30.9,44.3h7.9c0-21.7,17.7-39.4,39.4-39.4c21.7,0,39.4,17.7,39.4,39.4h7.9
	C131.8,113.4,118.9,96.1,100.9,89.4z M84.6,86.5c-11.9,0-21.6-9.7-21.6-21.6s9.7-21.6,21.6-21.6c11.9,0,21.6,9.7,21.6,21.6
	S96.5,86.5,84.6,86.5z"/>
</svg>
