<?xml version="1.0" encoding="utf-8"?>
<!-- Generator: Adobe Illustrator 27.0.0, SVG Export Plug-In . SVG Version: 6.00 Build 0)  -->
<svg version="1.1" id="圖層_1" xmlns="http://www.w3.org/2000/svg" xmlns:xlink="http://www.w3.org/1999/xlink" x="0px" y="0px"
	 viewBox="0 0 110 129" style="enable-background:new 0 0 110 129;" xml:space="preserve">
<style type="text/css">
	.st0{fill:#FFFFFF;}
	.st1{opacity:0.5;}
	.st2{fill:#8C8C8C;}
	.st3{fill:#C5332E;}
	.st4{fill:#C6C7C7;}
</style>
<g>
	<rect x="1.7" y="98.9" class="st0" width="104.4" height="29.5"/>
	<g class="st1">
		<path class="st0" d="M102.1,2.4v96.5H1.7C1.7,98.9,9.6,4.4,102.1,2.4z"/>
		<path class="st2" d="M102.4,99.2H1.4l0-0.3c0-0.2,2.1-24,15.5-47.6C24.8,37.4,35,26.2,47.2,18.1C62.5,8,80.9,2.6,102.1,2.2l0.3,0
			V99.2z M2,98.7h99.9v-96c-21,0.5-39.2,5.8-54.3,15.9c-12.1,8.1-22.3,19.2-30.1,33C4.8,73.7,2.2,96,2,98.7z"/>
	</g>
	<g>
		<rect x="96.2" y="0.4" class="st0" width="11.8" height="110.3"/>
		<path d="M108.4,111.1H95.8V0.1h12.6V111.1z M96.6,110.4h11.1V0.8H96.6V110.4z"/>
	</g>
</g>
</svg>
