<?xml version="1.0" encoding="utf-8"?>
<!-- Generator: Adobe Illustrator 27.0.0, SVG Export Plug-In . SVG Version: 6.00 Build 0)  -->
<svg version="1.1" id="圖層_1" xmlns="http://www.w3.org/2000/svg" xmlns:xlink="http://www.w3.org/1999/xlink" x="0px" y="0px"
	 viewBox="0 0 102 103" style="enable-background:new 0 0 102 103;" xml:space="preserve">
<style type="text/css">
	.st0{fill:#FFFFFF;}
	.st1{fill:#C6C7C7;}
	.st2{opacity:0.5;}
	.st3{fill:#8C8C8C;}
	.st4{fill:#FFFFFF;stroke:#C6C7C7;stroke-miterlimit:10;}
	.st5{fill:#C5332E;}
	.st6{fill:#C6C7C7;stroke:#8C8C8C;stroke-width:4;stroke-miterlimit:10;}
	.st7{fill:#FFFFFF;stroke:#C6C7C7;stroke-width:0.75;stroke-miterlimit:10;}
	.st8{opacity:0.7;fill:#FFFFFF;stroke:#C6C7C7;stroke-width:0.25;stroke-miterlimit:10;}
	.st9{fill:#231815;}
</style>
<g class="st2">
	<path class="st0" d="M97.8,1.2v90.4H1.7C1.7,91.6,9.2,3.1,97.8,1.2z"/>
	<path class="st3" d="M98,91.9H1.4l0-0.3c0-0.2,2-22.4,14.9-44.6c7.5-13,17.3-23.5,28.9-31.1C59.9,6.5,77.5,1.4,97.8,1L98,1V91.9z
		 M2,91.4h95.6V1.5c-20,0.5-37.5,5.5-52,14.9c-11.6,7.6-21.3,17.9-28.8,30.9C4.7,68,2.2,88.9,2,91.4z"/>
</g>
<g>
	<rect x="0.2" y="91.2" class="st0" width="99.5" height="11.5"/>
	<path class="st1" d="M99.5,91.5v11h-99v-11H99.5 M100,91H0v12h100V91L100,91z"/>
</g>
<g>
	<rect x="97.8" y="0.2" class="st0" width="4" height="96.5"/>
	<path class="st9" d="M101.5,0.5v96H98v-96H101.5 M102,0h-4.5v97h4.5V0L102,0z"/>
</g>
</svg>
