<?xml version="1.0" encoding="utf-8"?>
<!-- Generator: Adobe Illustrator 27.0.0, SVG Export Plug-In . SVG Version: 6.00 Build 0)  -->
<svg version="1.1" id="圖層_1" xmlns="http://www.w3.org/2000/svg" xmlns:xlink="http://www.w3.org/1999/xlink" x="0px" y="0px"
	 viewBox="0 0 103.5 108" style="enable-background:new 0 0 103.5 108;" xml:space="preserve">
<style type="text/css">
	.st0{opacity:0.5;}
	.st1{fill:#FFFFFF;}
	.st2{fill:#8C8C8C;}
	.st3{fill:#FFFFFF;stroke:#C6C7C7;stroke-miterlimit:10;}
	.st4{fill:#C5332E;}
	.st5{fill:#C6C7C7;}
	.st6{fill:#C6C7C7;stroke:#8C8C8C;stroke-width:4;stroke-miterlimit:10;}
	.st7{fill:#FFFFFF;stroke:#C6C7C7;stroke-width:0.75;stroke-miterlimit:10;}
	.st8{fill:none;stroke:#8C8C8C;stroke-miterlimit:10;}
</style>
<g class="st0">
	<path class="st1" d="M97.3,1.2v90.4H3.2C3.2,91.6,10.6,3.1,97.3,1.2z"/>
	<path class="st2" d="M97.5,91.9H2.9l0-0.3C3,91.4,5,69.2,17.5,47c7.4-13,16.9-23.5,28.3-31.1C60.2,6.5,77.5,1.4,97.3,1l0.2,0V91.9z
		 M3.5,91.4H97V1.5C77.4,1.9,60.3,6.9,46.1,16.3c-11.4,7.6-20.9,17.9-28.2,30.9C6.1,68,3.7,88.9,3.5,91.4z"/>
</g>
<rect x="1" y="92" class="st7" width="100.5" height="15.5"/>
<g>
	<rect x="96.8" y="0.3" class="st1" width="6.5" height="102.5"/>
	<path d="M103.5,103.2h-6.9V0h6.9V103.2z M97,102.5h6.1V0.7H97V102.5z"/>
</g>
</svg>
