<?xml version="1.0" encoding="utf-8"?>
<!-- Generator: Adobe Illustrator 27.0.0, SVG Export Plug-In . SVG Version: 6.00 Build 0)  -->
<svg version="1.1" id="圖層_1" xmlns="http://www.w3.org/2000/svg" xmlns:xlink="http://www.w3.org/1999/xlink" x="0px" y="0px"
	 viewBox="0 0 524.7 418.3" style="enable-background:new 0 0 524.7 418.3;" xml:space="preserve">
<style type="text/css">
	.st0{fill:#3F3D56;}
	.st1{fill:#A0616A;}
	.st2{fill:#2F2E41;}
	.st3{fill:#CCCCCC;}
	.st4{fill:#C6332E;}
	.st5{fill:#FFFFFF;}
</style>
<path class="st0" d="M442.2,400.5c2.1,0.1,3.2-2.4,1.6-3.9l-0.2-0.6c0,0,0-0.1,0.1-0.1c1.2-2.9,4.6-4.3,7.6-3.1
	c9.3,3.9-0.5,12.7,0.2,18.7c0.3,2.1,8.4,2.2,7.9,4.2c4.3-9.4,6.6-19.7,6.6-30c0-2.6-0.1-5.2-0.4-7.8c-0.2-2.1-0.6-4.2-1-6.3
	c-2.3-11.3-7.3-22-14.5-31c-3.5-1.9-1.4-4.9-3.1-8.4c-0.6-1.3-6.2-1.3-6.5-2.7c0.3,0,3.9-3.7,2.7-5.6c-0.8-1.2-0.5-2.8,0.5-3.8
	c0.1-0.1,0.2-0.2,0.3-0.3c3-4,7.1-3.3,9.2,2.2c4.6,2.3,4.6,6.1,1.8,9.8c-1.8,2.3-2,5.5-3.6,8c0.2,0.2,0.3,0.4,0.5,0.6
	c3,3.8,5.5,7.9,7.7,12.2c-0.6-4.8,0.3-10.5,1.8-14.2c1.8-4.2,5.1-7.8,8-11.5c3.5-4.4,10.5-2.4,11.1,3.2c0,0.1,0,0.1,0,0.2
	c-0.4,0.2-0.8,0.5-1.3,0.8c-2.3,1.5-1.5,5.2,1.2,5.6l0.1,0c-0.2,1.5-5.6,6.4-6,7.9c3.7,14.3,0.9,16.2-10.5,16.4l-0.6,0.9
	c1.1,3.1,1.9,6.3,2.6,9.5c0.6,3,1,6,1.3,9c0.3,3.8,0.3,7.7,0,11.5l0-0.1c0.8-4.2,3.1-8.1,6.4-10.9c4.9-4.1,11.9-5.6,17.3-8.8
	c2.6-1.6,5.9,0.5,5.4,3.4l0,0.1c-0.8,0.3-1.6,0.7-2.3,1.1c-0.4,0.2-0.8,0.5-1.3,0.8c-2.3,1.5-1.5,5.2,1.2,5.6l0.1,0c0,0,0.1,0,0.1,0
	c-1.4,3.2-14.3,7.8-16.7,10.4c-2.3,12.5-1.2,12.1-11.8,8.5h0c-1.2,5.1-2.9,10-5,14.7l-18,0c-0.1-0.2-0.1-0.4-0.2-0.6
	c1.7,0.1,3.3,0,5-0.3c-1.3-1.6-2.7-3.3-4-4.9c0,0-0.1-0.1-0.1-0.1l0,0l-1.9-6.1C441.6,403.1,441.8,401.8,442.2,400.5L442.2,400.5
	L442.2,400.5L442.2,400.5z"/>
<path class="st0" d="M251.7,416.4l-159.5,0.1c-8,0-15.2-4.1-19.2-11.1c-2-3.5-3-7.3-3-11.1c0-3.8,1-7.6,3-11.1l79.7-145
	c4-6.9,11.2-11.1,19.2-11.1s15.2,4.1,19.2,11.1l79.8,145c2,3.5,3,7.3,3,11.1c0,3.8-1,7.6-3,11.1
	C266.9,412.3,259.8,416.4,251.7,416.4L251.7,416.4L251.7,416.4z M72.1,394.3c0,3.5,17.6-4,19.4-0.8c3.6,6.3-6.5,21,0.8,21
	c0,0,173.3-3.8,176.9-10.1c1.8-3.2,2.7-6.6,2.7-10.1s-0.9-6.9-2.7-10.1l-79.8-145c-3.6-6.3-10.2-10.1-17.5-10.1
	C164.7,229.1,72.1,390.9,72.1,394.3L72.1,394.3L72.1,394.3z"/>
<path class="st0" d="M253.5,414.4c-2,4,91.6,2.8,92.7,2.8c0,0,26.3-0.6,26.9-1.5c0.3-0.5,0.4-1,0.4-1.5s-0.1-1.1-0.4-1.5l-12.1-22
	c-0.6-1-1.5-1.5-2.7-1.5c0,0-0.1,0-0.2,0.1c-16.2,14.4-36.1,24-57.8,24.3C277.3,413.8,253.6,414.2,253.5,414.4L253.5,414.4z"/>
<g>
	<polygon class="st1" points="403.9,411.3 394.8,411.3 390.5,376.4 403.9,376.4 	"/>
	<path class="st2" d="M372.9,411.1L372.9,411.1c-0.3,0.5-0.4,2-0.4,2.6l0,0c0,1.7,1.4,3.1,3.1,3.1l28,0c1.2,0,2.1-0.9,2.1-2.1l0-1.2
		c0,0,1.4-3.5-1.5-7.8c0,0-3.5,3.4-8.8-1.9l-1.6-2.8l-11.3,8.3l-6.3,0.8C374.8,410.1,373.6,409.9,372.9,411.1L372.9,411.1
		L372.9,411.1z"/>
</g>
<g>
	<polygon class="st1" points="369.2,381.5 360.6,384.4 345.4,352.7 358,348.4 	"/>
	<path class="st2" d="M339.8,391.2L339.8,391.2c-0.1,0.5,0.2,2,0.4,2.6l0,0c0.5,1.6,2.3,2.5,3.9,1.9l26.5-9c1.1-0.4,1.7-1.6,1.3-2.7
		l-0.4-1.1c0,0,0.2-3.8-3.9-6.9c0,0-2.3,4.3-9,1l-2.4-2.2l-8.1,11.5l-5.7,2.7C341.3,389.7,340.1,389.9,339.8,391.2L339.8,391.2
		L339.8,391.2z"/>
</g>
<polygon class="st2" points="355.2,179.1 337.7,237.2 317,289.5 349.8,364.1 361.9,358.7 347.4,290.1 377.9,243.6 392.1,388.8 
	404.3,388.1 420.8,212.8 423.1,174.7 "/>
<path class="st3" d="M408.2,50.4l-25.7,4.7l-2,11.5L365,74l-8.1,84.4c0,0-13.5,17.6-2.7,23l68.9-6.8c0,0,3.4-12.5,0-13.7
	s-3.4-31-3.4-31l15.5-61.4l-23-8.1L408.2,50.4L408.2,50.4z"/>
<circle class="st1" cx="393.1" cy="29.4" r="20.7"/>
<path class="st2" d="M406.8,32.5c-1.7,0.9-0.1,5.2-1.1,5.6c-1.2,0.4-5.6-4.5-5.6-10.1c0-1.7,0.4-2.5,0-4.5c-0.5-2.6-2-5.7-3.4-5.6
	c-0.8,0-1.6,1.2-1.7,2.2c-0.1,1.4,1.3,2,1.1,2.8c-0.4,1.5-6.3,2.5-8.4,0c-1.7-2-0.4-5.4-1.1-5.6c-0.5-0.1-1.1,1.8-3.4,3.9
	c-0.8,0.8-2.1,2-2.8,1.7c-1-0.5-0.3-3.9-0.6-3.9c-0.2,0-0.4,2.3-1.7,4.5c-1.7,2.7-5.1,4.9-6.7,3.9c-1-0.6-1.1-2.2-1.1-3.4
	c-0.1-2.5-3.8-8.4-2.9-11.1c1.9-5.5,5.3-1.6,6.8-3.5c2-2.5,3.9-1.2,7.3-3.9c3.3-2.7,3.4-5.4,5.6-5.6c2-0.2,2.7,2,5,1.7
	c2-0.3,2.4-1.9,3.9-1.7c1.4,0.2,1.5,1.7,3.4,2.2c1.2,0.4,1.5-0.2,2.8,0c2.8,0.3,4.7,2.9,5,3.4c1.4,1.8,0.8,2.6,2.2,4.5
	c1.2,1.6,3.9,0.9,4.9,1.7c3.3,2.6,4.7,7.4,4.8,12.9c0,3.8-0.5,5.8-1.6,10.6c-0.8,3.7-4.8,8.4-6.9,10.6c-0.6,0.6-2.2,2.2-3.4,1.7
	c-1.1-0.5-1.1-2.5-1.1-2.8c0-0.9,0.2-2.1,2.2-5c2.1-3.1,2.9-3.4,2.8-4.5C411.1,33.5,408.1,31.8,406.8,32.5
	C406.8,32.5,406.8,32.5,406.8,32.5z"/>
<g>
	<path class="st1" d="M334.5,225.8c-0.6,5.4,1.6,10.1,5.1,10.5s6.7-3.6,7.4-9c0.3-2.4,0-4.6-0.7-6.4l2.4-22.9l-10.8-0.9l-1.3,22.7
		C335.6,221.3,334.8,223.4,334.5,225.8L334.5,225.8L334.5,225.8z"/>
	<path class="st3" d="M365.5,73.5c0,0-5.6,0.1-9.3,7.3c-2,3.8-12.5,75.6-12.5,75.6l-9.7,58.8l16.5,0.1l12.9-55.7l10.8-32.3
		L365.5,73.5L365.5,73.5z"/>
</g>
<path class="st1" d="M411.9,217.1c-1.6,5.2-0.2,10.2,3.1,11.2s7.3-2.4,8.9-7.6c0.7-2.3,0.8-4.5,0.4-6.4l6.4-22.1l-10.5-2.8
	l-5.2,22.1C413.8,212.9,412.6,214.9,411.9,217.1L411.9,217.1L411.9,217.1z"/>
<path class="st3" d="M423.4,69.6c0,0,8.1-6.1,14.9,3.4c6.8,9.5,9.5,87.1,9.5,87.1l-18.9,48l-14.2-4.7l13.5-58.8L404.5,100
	L423.4,69.6L423.4,69.6z"/>
<g>
	<circle class="st4" cx="218.5" cy="311.4" r="73"/>
	<g>
		<circle class="st5" cx="218.5" cy="349.5" r="6.7"/>
		<path class="st5" d="M218.5,266.7c-0.6,4.1,0.5,4.9,0.5,22.6s3.7,41.3-0.5,41.3s-5.7-48.8-20-53.1
			C181.6,272.4,220.5,253.4,218.5,266.7L218.5,266.7z"/>
	</g>
</g>
<path class="st0" d="M120.5,348.7l-6.6,13.9c8-5.7,20.4-10.6,30.3-13.3c-9.2-4.5-20.5-11.7-27.3-18.8l3.8,14.7
	c-44.5-9.1-76.4-43.2-76.4-82.3l-1.6-0.6C42.7,303.3,74.2,339.5,120.5,348.7z"/>
</svg>
